<mxfile host="65bd71144e">
    <diagram id="jXOIIXCt933CdG06i9lF" name="Page-1">
        <mxGraphModel dx="999" dy="352" grid="1" gridSize="10" guides="1" tooltips="1" connect="1" arrows="1" fold="1" page="1" pageScale="1" pageWidth="850" pageHeight="1100" math="0" shadow="0">
            <root>
                <mxCell id="0"/>
                <mxCell id="1" parent="0"/>
                <mxCell id="73hb5Ho8YwHxcgU7LS8U-19" value="" style="rounded=0;whiteSpace=wrap;html=1;fillColor=#FFFBF0;strokeColor=#d6b656;" parent="1" vertex="1">
                    <mxGeometry x="200" y="10" width="540" height="350" as="geometry"/>
                </mxCell>
                <mxCell id="73hb5Ho8YwHxcgU7LS8U-1" value="Data Store" style="sketch=0;points=[[0,0,0],[0.25,0,0],[0.5,0,0],[0.75,0,0],[1,0,0],[0,1,0],[0.25,1,0],[0.5,1,0],[0.75,1,0],[1,1,0],[0,0.25,0],[0,0.5,0],[0,0.75,0],[1,0.25,0],[1,0.5,0],[1,0.75,0]];outlineConnect=0;fontColor=#232F3E;gradientColor=#60A337;gradientDirection=north;fillColor=#277116;strokeColor=#ffffff;dashed=0;verticalLabelPosition=bottom;verticalAlign=top;align=center;html=1;fontSize=12;fontStyle=0;aspect=fixed;shape=mxgraph.aws4.resourceIcon;resIcon=mxgraph.aws4.s3;" parent="1" vertex="1">
                    <mxGeometry x="490" y="200" width="40" height="40" as="geometry"/>
                </mxCell>
                <mxCell id="73hb5Ho8YwHxcgU7LS8U-18" value="" style="edgeStyle=orthogonalEdgeStyle;rounded=0;orthogonalLoop=1;jettySize=auto;html=1;strokeWidth=2;" parent="1" source="73hb5Ho8YwHxcgU7LS8U-2" target="73hb5Ho8YwHxcgU7LS8U-1" edge="1">
                    <mxGeometry relative="1" as="geometry"/>
                </mxCell>
                <mxCell id="73hb5Ho8YwHxcgU7LS8U-27" value="Image &lt;br&gt;File" style="edgeLabel;html=1;align=center;verticalAlign=middle;resizable=0;points=[];" parent="73hb5Ho8YwHxcgU7LS8U-18" vertex="1" connectable="0">
                    <mxGeometry x="0.1695" y="-2" relative="1" as="geometry">
                        <mxPoint x="2" y="4" as="offset"/>
                    </mxGeometry>
                </mxCell>
                <mxCell id="73hb5Ho8YwHxcgU7LS8U-2" value="Computation&lt;br&gt;Lambda" style="sketch=0;points=[[0,0,0],[0.25,0,0],[0.5,0,0],[0.75,0,0],[1,0,0],[0,1,0],[0.25,1,0],[0.5,1,0],[0.75,1,0],[1,1,0],[0,0.25,0],[0,0.5,0],[0,0.75,0],[1,0.25,0],[1,0.5,0],[1,0.75,0]];outlineConnect=0;fontColor=#232F3E;gradientColor=#F78E04;gradientDirection=north;fillColor=#D05C17;strokeColor=#ffffff;dashed=0;verticalLabelPosition=bottom;verticalAlign=top;align=center;html=1;fontSize=12;fontStyle=0;aspect=fixed;shape=mxgraph.aws4.resourceIcon;resIcon=mxgraph.aws4.lambda;" parent="1" vertex="1">
                    <mxGeometry x="425" y="120" width="40" height="40" as="geometry"/>
                </mxCell>
                <mxCell id="73hb5Ho8YwHxcgU7LS8U-3" value="Iistagram&lt;br&gt;Server" style="dashed=0;outlineConnect=0;html=1;align=center;labelPosition=center;verticalLabelPosition=bottom;verticalAlign=top;shape=mxgraph.weblogos.instagram;fillColor=#6FC0E4;gradientColor=#1E305B" parent="1" vertex="1">
                    <mxGeometry x="280" y="120" width="40" height="40" as="geometry"/>
                </mxCell>
                <mxCell id="73hb5Ho8YwHxcgU7LS8U-4" value="CDN" style="sketch=0;points=[[0,0,0],[0.25,0,0],[0.5,0,0],[0.75,0,0],[1,0,0],[0,1,0],[0.25,1,0],[0.5,1,0],[0.75,1,0],[1,1,0],[0,0.25,0],[0,0.5,0],[0,0.75,0],[1,0.25,0],[1,0.5,0],[1,0.75,0]];outlineConnect=0;fontColor=#232F3E;gradientColor=#945DF2;gradientDirection=north;fillColor=#5A30B5;strokeColor=#ffffff;dashed=0;verticalLabelPosition=bottom;verticalAlign=top;align=center;html=1;fontSize=12;fontStyle=0;aspect=fixed;shape=mxgraph.aws4.resourceIcon;resIcon=mxgraph.aws4.cloudfront;" parent="1" vertex="1">
                    <mxGeometry x="570" y="200" width="40" height="40" as="geometry"/>
                </mxCell>
                <mxCell id="73hb5Ho8YwHxcgU7LS8U-6" value="" style="sketch=0;html=1;dashed=0;whitespace=wrap;fillColor=#2875E2;strokeColor=#ffffff;points=[[0.005,0.63,0],[0.1,0.2,0],[0.9,0.2,0],[0.5,0,0],[0.995,0.63,0],[0.72,0.99,0],[0.5,1,0],[0.28,0.99,0]];shape=mxgraph.kubernetes.icon;prIcon=cronjob" parent="1" vertex="1">
                    <mxGeometry x="450" y="100" width="40" height="28" as="geometry"/>
                </mxCell>
                <mxCell id="73hb5Ho8YwHxcgU7LS8U-7" value="User/Website" style="verticalLabelPosition=bottom;shadow=0;dashed=0;align=center;html=1;verticalAlign=top;strokeWidth=1;shape=mxgraph.mockup.containers.userMale;strokeColor=#666666;strokeColor2=#008cff;" parent="1" vertex="1">
                    <mxGeometry x="620" y="280" width="40" height="40" as="geometry"/>
                </mxCell>
                <mxCell id="73hb5Ho8YwHxcgU7LS8U-10" value="" style="endArrow=classic;html=1;rounded=0;exitX=1;exitY=0.5;exitDx=0;exitDy=0;exitPerimeter=0;entryX=0;entryY=0.5;entryDx=0;entryDy=0;entryPerimeter=0;strokeWidth=2;" parent="1" source="73hb5Ho8YwHxcgU7LS8U-1" target="73hb5Ho8YwHxcgU7LS8U-4" edge="1">
                    <mxGeometry width="50" height="50" relative="1" as="geometry">
                        <mxPoint x="400" y="300" as="sourcePoint"/>
                        <mxPoint x="450" y="250" as="targetPoint"/>
                    </mxGeometry>
                </mxCell>
                <mxCell id="73hb5Ho8YwHxcgU7LS8U-14" value="" style="endArrow=classic;startArrow=classic;html=1;rounded=0;fillColor=#dae8fc;strokeColor=#6c8ebf;" parent="1" source="73hb5Ho8YwHxcgU7LS8U-3" target="73hb5Ho8YwHxcgU7LS8U-2" edge="1">
                    <mxGeometry width="50" height="50" relative="1" as="geometry">
                        <mxPoint x="400" y="300" as="sourcePoint"/>
                        <mxPoint x="450" y="250" as="targetPoint"/>
                    </mxGeometry>
                </mxCell>
                <mxCell id="73hb5Ho8YwHxcgU7LS8U-20" value="Image List" style="edgeLabel;html=1;align=center;verticalAlign=middle;resizable=0;points=[];" parent="73hb5Ho8YwHxcgU7LS8U-14" vertex="1" connectable="0">
                    <mxGeometry x="-0.382" relative="1" as="geometry">
                        <mxPoint x="22" as="offset"/>
                    </mxGeometry>
                </mxCell>
                <mxCell id="73hb5Ho8YwHxcgU7LS8U-16" value="Imstagram &lt;br&gt;CDN" style="shape=image;html=1;verticalAlign=top;verticalLabelPosition=bottom;labelBackgroundColor=#ffffff;imageAspect=0;aspect=fixed;image=https://cdn4.iconfinder.com/data/icons/social-media-2273/64/social_media_network_online_instagram_media-128.png" parent="1" vertex="1">
                    <mxGeometry x="280" y="20" width="40" height="40" as="geometry"/>
                </mxCell>
                <mxCell id="73hb5Ho8YwHxcgU7LS8U-17" value="" style="endArrow=classic;html=1;rounded=1;exitX=0.5;exitY=0;exitDx=0;exitDy=0;exitPerimeter=0;fillColor=#dae8fc;strokeColor=#6c8ebf;startArrow=classic;startFill=0;" parent="1" source="73hb5Ho8YwHxcgU7LS8U-2" target="73hb5Ho8YwHxcgU7LS8U-16" edge="1">
                    <mxGeometry width="50" height="50" relative="1" as="geometry">
                        <mxPoint x="400" y="300" as="sourcePoint"/>
                        <mxPoint x="450" y="250" as="targetPoint"/>
                        <Array as="points">
                            <mxPoint x="445" y="40"/>
                        </Array>
                    </mxGeometry>
                </mxCell>
                <mxCell id="73hb5Ho8YwHxcgU7LS8U-26" value="Image File" style="edgeLabel;html=1;align=center;verticalAlign=middle;resizable=0;points=[];" parent="73hb5Ho8YwHxcgU7LS8U-17" vertex="1" connectable="0">
                    <mxGeometry x="0.2117" y="1" relative="1" as="geometry">
                        <mxPoint x="-11" y="-1" as="offset"/>
                    </mxGeometry>
                </mxCell>
                <mxCell id="73hb5Ho8YwHxcgU7LS8U-25" value="Image &lt;br&gt;File" style="endArrow=classic;startArrow=classic;html=1;rounded=0;exitX=1;exitY=0.5;exitDx=0;exitDy=0;exitPerimeter=0;entryX=0.55;entryY=0.05;entryDx=0;entryDy=0;entryPerimeter=0;fillColor=#d5e8d4;strokeColor=#82b366;" parent="1" source="73hb5Ho8YwHxcgU7LS8U-4" target="73hb5Ho8YwHxcgU7LS8U-7" edge="1">
                    <mxGeometry x="0.1064" width="50" height="50" relative="1" as="geometry">
                        <mxPoint x="400" y="300" as="sourcePoint"/>
                        <mxPoint x="450" y="250" as="targetPoint"/>
                        <Array as="points">
                            <mxPoint x="642" y="220"/>
                        </Array>
                        <mxPoint as="offset"/>
                    </mxGeometry>
                </mxCell>
            </root>
        </mxGraphModel>
    </diagram>
</mxfile>